:FULLY-SPECIFIED
:FORCE-ALL-JOINTS-BE-3DOF
:DEGREES
849
root 3.62455 16.336 27.8406 -6.76629 3.51282 357.122
lfemur -24.0445 2.27957 -11.8505
ltibia 34.2046 0 0
lfoot -4.32458 -10.5063 0
ltoes 5.23715 0 0
rfemur -24.6655 -10.3531 16.6576
rtibia 51.0543 0 0
rfoot 5.24714 10.3097 0
rtoes -34.656 0 0
lowerback 4.11838 3.51884 -0.54447
upperback 1.11917 4.32289 -0.0786726
thorax -0.912513 2.16382 0.496729
lowerneck -6.5262 -2.89345 3.17876
upperneck 6.99369 -4.35013 2.15811
head 3.38839 -1.97911 -0.0654068
lclavicle -5.05792e-14 -5.38652e-16 0
lhumerus -48.0497 -11.2487 83.9536
lradius 55.2995 0 0
lwrist 18.8575 0 0
lhand 1.68546 5.18526 0
lfingers 7.12502 0 0
lthumb 27.1804 33.0234 0
rclavicle -5.05792e-14 -5.38652e-16 0
rhumerus -39.0169 14.6747 -70.0245
rradius 56.6619 0 0
rwrist 4.68601 0 0
rhand -16.2758 -23.6866 0
rfingers 7.12502 0 0
rthumb 9.90338 -772.9 0
850
root 3.64528 16.3447 27.9358 -7.13427 4.10423 357.303
lfemur -23.4691 2.59292 -12.2661
ltibia 34.3695 0 0
lfoot -4.58695 -11.1001 0
ltoes 5.87975 0 0
rfemur -26.8788 -10.6351 17.5027
rtibia 50.4203 0 0
rfoot 4.93974 10.609 0
rtoes -34.6022 0 0
lowerback 4.67596 3.28771 -0.82487
upperback 1.31288 3.9859 -0.179926
thorax -1.02092 1.99606 0.55586
lowerneck -6.57546 -2.88491 3.1508
upperneck 6.90963 -4.34224 2.24887
head 3.37187 -1.9737 -0.0308035
lclavicle -4.58164e-14 2.43661e-16 0
lhumerus -47.3425 -12.0109 83.7608
lradius 55.6266 0 0
lwrist 19.1136 0 0
lhand 2.18706 5.14831 0
lfingers 7.12502 0 0
lthumb 27.659 32.9009 0
rclavicle -4.58164e-14 2.43661e-16 0
rhumerus -39.5508 13.3889 -68.7929
rradius 56.4716 0 0
rwrist 4.6747 0 0
rhand -15.3014 -23.8466 0
rfingers 7.12502 0 0
rthumb 10.8414 -772.991 0
851
root 3.66601 16.3535 28.0309 -7.50224 4.69564 357.484
lfemur -22.8936 2.90627 -12.6818
ltibia 34.5344 0 0
lfoot -4.84932 -11.6939 0
ltoes 6.52236 0 0
rfemur -29.0921 -10.9171 18.3478
rtibia 49.7863 0 0
rfoot 4.63234 10.9083 0
rtoes -34.5484 0 0
lowerback 5.23355 3.05657 -1.10527
upperback 1.5066 3.64891 -0.28118
thorax -1.12932 1.8283 0.61499
lowerneck -6.62472 -2.87636 3.12283
upperneck 6.82558 -4.33435 2.33963
head 3.35534 -1.96828 0.00379977
lclavicle -4.10536e-14 1.02597e-15 0
lhumerus -46.6353 -12.773 83.5679
lradius 55.9537 0 0
lwrist 19.3697 0 0
lhand 2.68866 5.11135 0
lfingers 7.12502 0 0
lthumb 28.1377 32.7784 0
rclavicle -4.10536e-14 1.02597e-15 0
rhumerus -40.0846 12.1031 -67.5613
rradius 56.2812 0 0
rwrist 4.66338 0 0
rhand -14.327 -24.0067 0
rfingers 7.12502 0 0
rthumb 11.7794 -773.081 0
852
root 3.68674 16.3623 28.1261 -7.87022 5.28705 357.665
lfemur -22.3182 3.21962 -13.0975
ltibia 34.6993 0 0
lfoot -5.11169 -12.2877 0
ltoes 7.16497 0 0
rfemur -31.3054 -11.1991 19.1929
rtibia 49.1522 0 0
rfoot 4.32493 11.2076 0
rtoes -34.4946 0 0
lowerback 5.79114 2.82543 -1.38567
upperback 1.70031 3.31193 -0.382434
thorax -1.23773 1.66053 0.674121
lowerneck -6.67398 -2.86781 3.09487
upperneck 6.74152 -4.32647 2.4304
head 3.33881 -1.96286 0.0384031
lclavicle -3.62908e-14 1.80829e-15 0
lhumerus -45.9281 -13.5352 83.375
lradius 56.2807 0 0
lwrist 19.6259 0 0
lhand 3.19025 5.07439 0
lfingers 7.12502 0 0
lthumb 28.6163 32.656 0
rclavicle -3.62908e-14 1.80829e-15 0
rhumerus -40.6184 10.8174 -66.3296
rradius 56.0908 0 0
rwrist 4.65207 0 0
rhand -13.3526 -24.1667 0
rfingers 7.12502 0 0
rthumb 12.7174 -773.171 0
853
root 3.70747 16.371 28.2212 -8.23819 5.87846 357.846
lfemur -21.7428 3.53297 -13.5131
ltibia 34.8642 0 0
lfoot -5.37406 -12.8815 0
ltoes 7.80758 0 0
rfemur -33.5187 -11.4811 20.0379
rtibia 48.5182 0 0
rfoot 4.01753 11.5069 0
rtoes -34.4408 0 0
lowerback 6.34872 2.59429 -1.66607
upperback 1.89402 2.97494 -0.483688
thorax -1.34614 1.49277 0.733251
lowerneck -6.72324 -2.85927 3.06691
upperneck 6.65747 -4.31858 2.52116
head 3.32228 -1.95745 0.0730064
lclavicle -3.1528e-14 2.5906e-15 0
lhumerus -45.2209 -14.2974 83.1821
lradius 56.6078 0 0
lwrist 19.882 0 0
lhand 3.69185 5.03743 0
lfingers 7.12502 0 0
lthumb 29.095 32.5335 0
rclavicle -3.1528e-14 2.5906e-15 0
rhumerus -41.1522 9.53163 -65.098
rradius 55.9004 0 0
rwrist 4.64076 0 0
rhand -12.3782 -24.3267 0
rfingers 7.12502 0 0
rthumb 13.6554 -773.262 0
854
root 3.7282 16.3798 28.3164 -8.60617 6.46986 358.028
lfemur -21.1673 3.84631 -13.9288
ltibia 35.0291 0 0
lfoot -5.63644 -13.4753 0
ltoes 8.45018 0 0
rfemur -35.732 -11.7631 20.883
rtibia 47.8842 0 0
rfoot 3.71013 11.8062 0
rtoes -34.3869 0 0
lowerback 6.90631 2.36316 -1.94647
upperback 2.08773 2.63795 -0.584942
thorax -1.45454 1.325 0.792382
lowerneck -6.77249 -2.85072 3.03894
upperneck 6.57341 -4.31069 2.61193
head 3.30576 -1.95203 0.10761
lclavicle -2.67651e-14 3.37291e-15 0
lhumerus -44.5136 -15.0596 82.9893
lradius 56.9349 0 0
lwrist 20.1381 0 0
lhand 4.19345 5.00047 0
lfingers 7.12502 0 0
lthumb 29.5736 32.411 0
rclavicle -2.67651e-14 3.37291e-15 0
rhumerus -41.6861 8.24587 -63.8663
rradius 55.7101 0 0
rwrist 4.62944 0 0
rhand -11.4038 -24.4868 0
rfingers 7.12502 0 0
rthumb 14.5934 -773.352 0
